<svg width="24" height="24" viewBox="0 0 24 24" fill="none" xmlns="http://www.w3.org/2000/svg">
<path fill-rule="evenodd" clip-rule="evenodd" d="M4.27997 7.03364L6.16546 7.54434L9.67792 4.99239V3.11802C7.42554 3.70514 5.50945 5.12645 4.27997 7.03364ZM11.322 2.84646V4.99239L14.8344 7.54433L17.5541 6.80761L18.1694 5.20468C16.5394 3.72404 14.3746 2.82181 11.9998 2.82181C11.7718 2.82181 11.5458 2.83012 11.322 2.84646ZM19.4043 6.57544L19.1963 7.11713L20.049 7.58606C19.8558 7.23452 19.6403 6.89701 19.4043 6.57544ZM20.95 9.95787L18.0666 8.37212L15.3139 9.11777L13.9932 13.1827L15.8012 15.5159L20.4716 15.0251C20.5376 15.0181 20.603 15.0193 20.6667 15.0278C20.9977 14.0804 21.1777 13.0617 21.1777 11.9998C21.1777 11.2971 21.0989 10.6138 20.95 9.95787ZM19.859 16.7426L16.1117 17.1364L15.3901 20.5314C17.2597 19.7877 18.8285 18.4463 19.859 16.7426ZM13.6015 21.0386L14.5484 16.5834L12.674 14.1644H8.33698L6.5522 16.573L7.24974 19.8547C8.63499 20.6943 10.2598 21.1777 11.9998 21.1777C12.5466 21.1777 13.0818 21.13 13.6015 21.0386ZM5.21253 18.1779L4.99116 17.1364L4.34732 17.0688C4.60744 17.4606 4.89689 17.8314 5.21253 18.1779ZM3.44068 15.3203L5.29009 15.5147L7.01024 13.1934L5.686 9.11779L3.5017 8.52615C3.06355 9.59683 2.82181 10.7692 2.82181 11.9998C2.82181 13.1721 3.04122 14.2915 3.44068 15.3203ZM7.29669 8.75464L8.52023 12.5203H12.4797L13.7032 8.75464L10.5 6.42733L7.29669 8.75464ZM2.30598 7.18368C4.07695 3.62544 7.75176 1.17773 11.9998 1.17773C17.0089 1.17773 21.2212 4.58023 22.4556 9.19875C22.6946 10.0931 22.8218 11.0322 22.8218 11.9998C22.8218 13.7873 22.3878 15.4758 21.6187 16.9634C20.2574 19.5965 17.8466 21.5995 14.9368 22.4183C14.0019 22.6814 13.0166 22.8218 11.9998 22.8218C9.81046 22.8218 7.77069 22.1708 6.06649 21.0517C4.34796 19.9231 2.97002 18.3182 2.12038 16.4233C1.51437 15.0718 1.17773 13.574 1.17773 11.9998C1.17773 10.2712 1.5836 8.6351 2.30598 7.18368Z" fill="#26272B"/>
</svg>
